<?xml version="1.0" ?><svg baseProfile="tiny" height="24px" id="Layer_1" version="1.2" viewBox="0 0 24 24" width="24px" xml:space="preserve" xmlns="http://www.w3.org/2000/svg" xmlns:xlink="http://www.w3.org/1999/xlink"><path d="M4.75,15.561C5.119,15.855,5.561,16,5.998,16c0.588,0,1.168-0.258,1.563-0.752l2.789-3.486L12.8,13.6  c0.864,0.648,2.088,0.492,2.762-0.352l4-5c0.69-0.861,0.55-2.121-0.312-2.811c-0.863-0.689-2.121-0.551-2.812,0.312l-2.789,3.486  L11.2,7.4c-0.864-0.648-2.087-0.494-2.762,0.35l-4,5C3.748,13.613,3.889,14.871,4.75,15.561z"/><path d="M5,21h14c0.553,0,1-0.447,1-1s-0.447-1-1-1H5c-0.553,0-1,0.447-1,1S4.447,21,5,21z"/></svg>