<?xml version="1.0" ?><svg baseProfile="tiny" height="24px" version="1.2" viewBox="0 0 24 24" width="24px" xml:space="preserve" xmlns="http://www.w3.org/2000/svg" xmlns:xlink="http://www.w3.org/1999/xlink"><g id="Layer_1"><path d="M21,1H3C1.346,1,0,2.346,0,4v11c0,1.654,1.346,3,3,3h6v2H6c-0.552,0-1,0.448-1,1s0.448,1,1,1h12c0.552,0,1-0.448,1-1   s-0.448-1-1-1h-3v-2h6c1.654,0,3-1.346,3-3V4C24,2.346,22.654,1,21,1z M14,20h-4v-2h4V20z M22,15c0,0.551-0.449,1-1,1H3   c-0.551,0-1-0.449-1-1V4c0-0.551,0.449-1,1-1h18c0.551,0,1,0.449,1,1V15z"/><path d="M20,4H4C3.45,4,3,4.45,3,5v8c0,0.55,0.45,1,1,1h16c0.55,0,1-0.45,1-1V5C21,4.45,20.55,4,20,4z M20,13H4V5h16V13z"/></g></svg>