<?xml version="1.0" ?><svg baseProfile="tiny" height="24px" version="1.2" viewBox="0 0 24 24" width="24px" xml:space="preserve" xmlns="http://www.w3.org/2000/svg" xmlns:xlink="http://www.w3.org/1999/xlink"><g id="Layer_1"><path d="M17,4H8C7.45,4,7,4.45,7,5v12c0,0.55,0.45,1,1,1h3.5c0,0.553,0.448,1,1,1s1-0.447,1-1H17c0.55,0,1-0.45,1-1V5   C18,4.45,17.55,4,17,4z M17,17H8V5h9V17z"/><path d="M18,1H7C5.346,1,4,2.346,4,4v15c0,1.654,1.346,3,3,3h11c1.654,0,3-1.346,3-3V4C21,2.346,19.654,1,18,1z M19,19   c0,0.551-0.449,1-1,1H7c-0.551,0-1-0.449-1-1V4c0-0.551,0.449-1,1-1h11c0.551,0,1,0.449,1,1V19z"/></g></svg>