<?xml version="1.0" ?><svg baseProfile="tiny" height="24px" version="1.2" viewBox="0 0 24 24" width="24px" xml:space="preserve" xmlns="http://www.w3.org/2000/svg" xmlns:xlink="http://www.w3.org/1999/xlink"><g id="Layer_1"><path d="M11.68,1.017L11.5,0.983l-0.18,0.033C6.499,1.9,3,6.1,3,11c0,4.617,3.108,8.61,7.5,9.795V22c0,0.553,0.448,1,1,1   s1-0.447,1-1v-1.205C16.892,19.61,20,15.617,20,11C20,6.1,16.501,1.9,11.68,1.017z M12.5,18.7V7c0-0.553-0.448-1-1-1s-1,0.447-1,1   v11.7c-3.18-1.093-5.4-4.054-5.49-7.483l3.137,3.137C8.244,14.451,8.372,14.5,8.5,14.5s0.256-0.049,0.354-0.146   c0.195-0.195,0.195-0.512,0-0.707L5.085,9.878c0.133-0.964,0.434-1.877,0.877-2.709l2.184,2.185C8.244,9.451,8.372,9.5,8.5,9.5   s0.256-0.049,0.354-0.146c0.195-0.195,0.195-0.512,0-0.707L6.501,6.294C7.663,4.653,9.42,3.448,11.5,3.019   c2.08,0.43,3.837,1.635,4.999,3.275l-2.353,2.353c-0.195,0.195-0.195,0.512,0,0.707C14.244,9.451,14.372,9.5,14.5,9.5   s0.256-0.049,0.354-0.146l2.184-2.185c0.444,0.832,0.744,1.745,0.877,2.709l-3.769,3.769c-0.195,0.195-0.195,0.512,0,0.707   c0.098,0.098,0.226,0.146,0.354,0.146s0.256-0.049,0.354-0.146l3.137-3.137C17.9,14.646,15.68,17.607,12.5,18.7z"/></g></svg>