<?xml version="1.0" ?><svg baseProfile="tiny" height="24px" id="Layer_1" version="1.2" viewBox="0 0 24 24" width="24px" xml:space="preserve" xmlns="http://www.w3.org/2000/svg" xmlns:xlink="http://www.w3.org/1999/xlink"><g><g><path d="M12,8.5c-1.654,0-3-1.346-3-3s1.346-3,3-3s3,1.346,3,3S13.654,8.5,12,8.5z M12,4.5c-0.552,0-1,0.449-1,1s0.448,1,1,1    s1-0.449,1-1S12.552,4.5,12,4.5z"/></g></g><g><g><path d="M12,21.5c-1.654,0-3-1.346-3-3s1.346-3,3-3s3,1.346,3,3S13.654,21.5,12,21.5z M12,17.5c-0.552,0-1,0.449-1,1s0.448,1,1,1    s1-0.449,1-1S12.552,17.5,12,17.5z"/></g></g><g><g><path d="M18,15H6c-1.654,0-3-1.346-3-3c0-1.654,1.346-3,3-3h12c1.654,0,3,1.346,3,3C21,13.654,19.654,15,18,15z M6,11    c-0.552,0-1,0.449-1,1s0.448,1,1,1h12c0.552,0,1-0.449,1-1s-0.448-1-1-1H6z"/></g></g></svg>