<?xml version="1.0" ?><svg baseProfile="tiny" height="24px" version="1.2" viewBox="0 0 24 24" width="24px" xml:space="preserve" xmlns="http://www.w3.org/2000/svg" xmlns:xlink="http://www.w3.org/1999/xlink"><g id="Layer_1"><g><path d="M15,3H8C6.346,3,5,4.346,5,6v12c0,1.654,1.346,3,3,3h7c1.654,0,3-1.346,3-3V6C18,4.346,16.654,3,15,3z M16,18    c0,0.551-0.449,1-1,1H8c-0.551,0-1-0.449-1-1V6c0-0.551,0.449-1,1-1h7c0.551,0,1,0.449,1,1V18z"/><path d="M14,6H9C8.45,6,8,6.45,8,7v9c0,0.55,0.45,1,1,1h1.5c0,0.553,0.448,1,1,1s1-0.447,1-1H14c0.55,0,1-0.45,1-1V7    C15,6.45,14.55,6,14,6z M14,16H9V7h5V16z"/></g></g></svg>