<?xml version="1.0" ?><svg baseProfile="tiny" height="24px" version="1.2" viewBox="0 0 24 24" width="24px" xml:space="preserve" xmlns="http://www.w3.org/2000/svg" xmlns:xlink="http://www.w3.org/1999/xlink"><g id="Layer_1"><path d="M20,11c0-4.9-3.499-9.1-8.32-9.983L11.5,0.983l-0.18,0.033C6.499,1.9,3,6.1,3,11c0,4.617,3.108,8.61,7.5,9.795V22   c0,0.553,0.448,1,1,1s1-0.447,1-1v-1.205C16.892,19.61,20,15.617,20,11z M12.5,18.7v-2.993l4.354-4.354   c0.195-0.195,0.195-0.512,0-0.707s-0.512-0.195-0.707,0L12.5,14.293v-3.586l2.354-2.354c0.195-0.195,0.195-0.512,0-0.707   s-0.512-0.195-0.707,0L12.5,9.293V6c0-0.553-0.448-1-1-1s-1,0.447-1,1v3.293L8.854,7.646c-0.195-0.195-0.512-0.195-0.707,0   s-0.195,0.512,0,0.707l2.354,2.354v3.586l-3.646-3.646c-0.195-0.195-0.512-0.195-0.707,0s-0.195,0.512,0,0.707l4.354,4.354V18.7   C7.253,17.584,5,14.521,5,11c0-3.874,2.723-7.201,6.5-7.981C15.277,3.799,18,7.126,18,11C18,14.521,15.747,17.584,12.5,18.7z"/></g></svg>