<?xml version="1.0" ?><svg baseProfile="tiny" height="24px" id="Layer_1" version="1.2" viewBox="0 0 24 24" width="24px" xml:space="preserve" xmlns="http://www.w3.org/2000/svg" xmlns:xlink="http://www.w3.org/1999/xlink"><path d="M12,20c3.86,0,7-3.141,7-7s-3.14-7-7.003-7C8.139,6,5,9.141,5,13S8.14,20,12,20z M11,8.102V10c0,0.553,0.448,1,1,1  s1-0.447,1-1V8.102C14.956,8.5,16.5,10.044,16.899,12H15c-0.552,0-1,0.447-1,1s0.448,1,1,1h1.899C16.5,15.956,14.956,17.5,13,17.898  V16c0-0.553-0.448-1-1-1s-1,0.447-1,1v1.898C9.044,17.5,7.5,15.956,7.101,14H9c0.552,0,1-0.447,1-1s-0.448-1-1-1H7.101  C7.5,10.044,9.043,8.5,11,8.102z"/></svg>