<?xml version="1.0" ?><svg baseProfile="tiny" height="24px" id="Layer_1" version="1.2" viewBox="0 0 24 24" width="24px" xml:space="preserve" xmlns="http://www.w3.org/2000/svg" xmlns:xlink="http://www.w3.org/1999/xlink"><g><path d="M17,16H7c-1.104,0-2,0.895-2,2c0,1.104,0.896,2,2,2h10c1.104,0,2-0.896,2-2C19,16.895,18.104,16,17,16z"/></g><g><path d="M18.433,10.604C15.859,7.963,12,4,12,4s-3.859,3.963-6.433,6.604C5.218,10.967,5,11.457,5,12c0,1.104,0.896,2,2,2h10   c1.104,0,2-0.896,2-2C19,11.457,18.782,10.967,18.433,10.604z"/></g></svg>