<?xml version="1.0" ?><svg baseProfile="tiny" height="24px" id="Layer_1" version="1.2" viewBox="0 0 24 24" width="24px" xml:space="preserve" xmlns="http://www.w3.org/2000/svg" xmlns:xlink="http://www.w3.org/1999/xlink"><g><path d="M18,13.5c-0.553,0-1,0.447-1,1c0,2.414-1.721,4.434-4,4.898V12h4c0.553,0,1-0.447,1-1s-0.447-1-1-1h-4V8.816   C14.162,8.403,15,7.305,15,6c0-1.657-1.343-3-3-3S9,4.343,9,6c0,1.305,0.838,2.403,2,2.816V10H7c-0.553,0-1,0.447-1,1s0.447,1,1,1   h4v7.398c-2.279-0.465-4-2.484-4-4.898c0-0.553-0.447-1-1-1s-1,0.447-1,1c0,3.859,3.141,7,7,7s7-3.141,7-7   C19,13.947,18.553,13.5,18,13.5z M12,5c0.551,0,1,0.449,1,1s-0.449,1-1,1s-1-0.449-1-1S11.449,5,12,5z"/></g></svg>