<?xml version="1.0" ?><svg baseProfile="tiny" height="24px" version="1.2" viewBox="0 0 24 24" width="24px" xml:space="preserve" xmlns="http://www.w3.org/2000/svg" xmlns:xlink="http://www.w3.org/1999/xlink"><g id="Layer_1"><path d="M19,5c-0.553,0-1,0.447-1,1s0.447,1,1,1c0.552,0,1,0.448,1,1s-0.448,1-1,1H8c-0.553,0-1,0.447-1,1s0.447,1,1,1h6   c0.552,0,1,0.448,1,1s-0.448,1-1,1H7.6c-1.654,0-3,1.346-3,3s1.346,3,3,3c0.553,0,1-0.447,1-1s-0.447-1-1-1c-0.552,0-1-0.448-1-1   s0.448-1,1-1H14c1.654,0,3-1.346,3-3c0-0.353-0.072-0.686-0.185-1H19c1.654,0,3-1.346,3-3S20.654,5,19,5z"/></g></svg>